<svg width="40" height="40" viewBox="0 0 40 40" fill="none" xmlns="http://www.w3.org/2000/svg">
<path opacity="0.966" fill-rule="evenodd" clip-rule="evenodd" d="M16.5157 0.154567C18.9134 -0.0515027 21.477 -0.051542 23.9318 0.154567C32.4727 2.32157 37.8286 7.70794 40 16.3137C40 18.7997 40 21.2857 40 23.7718C37.8014 32.5086 32.3423 37.8952 23.6228 39.9309C21.3568 39.9309 18.9134 40.0864 16.8247 39.9309C8.09703 37.8868 2.63798 32.5002 0.447562 23.7718C-0.130471 21.283 -0.167615 18.7518 0.447562 16.3137C2.61881 7.70794 7.97485 2.32157 16.5157 0.154567ZM27.6399 12.2739C28.8729 12.0638 29.3879 12.5817 29.1849 13.8277C28.5462 18.7173 27.7737 23.5858 26.8674 28.4331C26.6746 29.1335 26.2626 29.6514 25.6313 29.9868C22.5869 28.4854 19.8573 26.5691 17.4427 24.2379C19.4475 21.8075 21.662 19.5804 24.0863 17.5567C24.3022 17.0676 24.1992 16.6533 23.7773 16.3137C20.4457 18.48 17.0981 20.6034 13.7347 22.6841C12.4821 22.6814 11.2461 22.4742 10.0267 22.0626C9.25512 21.9347 8.63711 21.5721 8.17265 20.975C8.77724 20.3582 9.49824 19.8921 10.3357 19.5766C16.0971 17.0436 21.8651 14.6093 27.6399 12.2739Z" fill="white"/>
</svg>
