<svg width="40" height="40" viewBox="0 0 40 40" fill="none" xmlns="http://www.w3.org/2000/svg">
<path opacity="0.973" fill-rule="evenodd" clip-rule="evenodd" d="M9.0625 0C16.3542 0 23.6458 0 30.9375 0C36.3541 0.625 39.375 3.64584 40 9.0625C40 16.3542 40 23.6458 40 30.9375C39.3772 36.3519 36.3566 39.3728 30.9375 40C23.6458 40 16.3542 40 9.0625 40C3.64584 39.375 0.625 36.3541 0 30.9375C0 23.6458 0 16.3542 0 9.0625C0.625 3.64584 3.64584 0.625 9.0625 0ZM8.125 12.5C9.30416 12.426 10.45 12.5823 11.5625 12.9688C12.6406 16.0636 14.2031 18.8761 16.25 21.4062C16.6541 21.5594 17.0708 21.6115 17.5 21.5625C17.8043 19.6963 17.8564 17.8213 17.6562 15.9375C17.62 14.8651 17.2554 13.9276 16.5625 13.125C16.7267 12.9086 16.935 12.7524 17.1875 12.6562C18.767 12.4122 20.3295 12.4643 21.875 12.8125C22.1096 13.0863 22.2659 13.3988 22.3438 13.75C22.4999 15.935 22.552 18.1225 22.5 20.3125C23.5264 20.3846 24.3077 19.9679 24.8438 19.0625C26.2386 17.1599 27.4365 15.1287 28.4375 12.9688C29.7794 12.4431 31.1336 12.391 32.5 12.8125C32.7725 13.4268 32.7203 14.0518 32.3438 14.6875C31.0553 16.7467 29.8574 18.8301 28.75 20.9375C29.5242 22.4988 30.6179 23.853 32.0312 25C32.5791 25.7828 33.0478 26.6161 33.4375 27.5C33.3722 27.6831 33.2678 27.8394 33.125 27.9688C31.7709 28.1771 30.4167 28.1771 29.0625 27.9688C27.7145 26.5173 26.2562 25.1632 24.6875 23.9062C24.007 23.5306 23.2779 23.3743 22.5 23.4375C22.5517 24.6918 22.4996 25.9418 22.3438 27.1875C22.2268 27.4738 22.0706 27.7343 21.875 27.9688C17.7724 28.2878 14.4912 26.7774 12.0312 23.4375C10.3309 20.9749 8.87259 18.3707 7.65625 15.625C7.35834 14.7088 7.20209 13.7713 7.1875 12.8125C7.59094 12.8867 7.90344 12.7825 8.125 12.5Z" fill="white"/>
</svg>
